<svg xmlns="http://www.w3.org/2000/svg" viewBox="0 0 24 24"><path fill="black" d="M2.015625,5.4375 Q2.015625,20.34375 2.015625,20.671875 Q2.203125,22.078125 3.46875,22.359375 Q3.84375,22.40625 5.015625,22.40625 L18.984375,22.40625 Q20.15625,22.40625 20.53125,22.359375 Q21.796875,22.078125 21.984375,20.671875 Q21.984375,20.34375 21.984375,19.40625 Q21.984375,4.5 21.984375,4.171875 Q21.796875,2.765625 20.53125,2.484375 Q20.15625,2.4375 18.984375,2.4375 Q4.078125,2.4375 3.75,2.4375 Q2.34375,2.625 2.0625,3.890625 Q2.015625,4.265625 2.015625,5.4375 Z M4.03125,20.390625 Q3.984375,19.59375 3.984375,12.140625 Q3.984375,4.6875 4.03125,4.453125 Q4.40625,4.40625 18.984375,4.40625 Q19.640625,4.40625 19.96875,4.453125 Q20.015625,4.828125 20.015625,19.40625 Q20.015625,20.0625 19.96875,20.390625 Q19.59375,20.4375 5.015625,20.4375 Q4.359375,20.4375 4.03125,20.390625 Z M9.0,8.953125 Q9.0,9.421875 8.5078125,9.421875 Q8.015625,9.421875 8.015625,8.9296875 Q8.015625,8.4375 8.5078125,8.4375 Q9.0,8.4375 9.0,8.953125 Z M6.703125,7.171875 Q6.0,7.875 6.0,8.90625 Q6.0,9.9375 6.7265625,10.6875 Q7.453125,11.4375 8.484375,11.4375 Q9.515625,11.4375 10.265625,10.6875 Q11.015625,9.9375 11.015625,8.90625 Q11.015625,7.875 10.265625,7.1484375 Q9.515625,6.421875 8.484375,6.421875 Q7.453125,6.421875 6.703125,7.171875 Z M20.296875,16.125 Q20.765625,16.59375 21.375,16.3359375 Q21.984375,16.078125 21.984375,15.421875 Q21.984375,15.0 21.703125,14.71875 L16.6875,9.703125 Q16.40625,9.421875 16.0078125,9.421875 Q15.609375,9.421875 15.28125,9.703125 L4.3125,20.71875 Q3.84375,21.1875 4.078125,21.796875 Q4.3125,22.40625 5.015625,22.40625 Q5.390625,22.40625 5.71875,22.125 L15.984375,11.8125 Z"/></svg>
